<svg id="b8b59963-0bea-499f-a84d-81d26d0b63e2" data-name="Layer 1" xmlns="http://www.w3.org/2000/svg" viewBox="0 0 283.34 130.25"><defs><style>.eee88ff3-5f15-449a-8a12-6f30a5e6b886{fill:#fff;}.b86a72e9-76db-4e94-8fee-b5f586f73207,.bbd577da-00c8-4a12-9272-e1afa8881af7,.eee88ff3-5f15-449a-8a12-6f30a5e6b886,.ff99b0ce-5913-40c8-80b2-efc38e4aea91{stroke:#231f20;stroke-miterlimit:10;}.bbd577da-00c8-4a12-9272-e1afa8881af7,.ff99b0ce-5913-40c8-80b2-efc38e4aea91{fill:none;}.ff99b0ce-5913-40c8-80b2-efc38e4aea91{stroke-width:6px;}.b86a72e9-76db-4e94-8fee-b5f586f73207,.bbd577da-00c8-4a12-9272-e1afa8881af7{stroke-width:2px;}.b86a72e9-76db-4e94-8fee-b5f586f73207{fill:#231f20;}</style></defs><ellipse class="eee88ff3-5f15-449a-8a12-6f30a5e6b886" cx="141.67" cy="65.62" rx="73.29" ry="62.58"/><path class="ff99b0ce-5913-40c8-80b2-efc38e4aea91" d="M177.06,392.07a197.22,197.22,0,0,1,279-4.74" transform="translate(-174.9 -328.83)"/><path class="ff99b0ce-5913-40c8-80b2-efc38e4aea91" d="M456.08,395.64a197.21,197.21,0,0,1-279,5.16" transform="translate(-174.9 -328.83)"/><path class="bbd577da-00c8-4a12-9272-e1afa8881af7" d="M302.85,378.42c-7.17,2-18-14.61-24.28-37.12" transform="translate(-174.9 -328.83)"/><path class="bbd577da-00c8-4a12-9272-e1afa8881af7" d="M320.51,373.12c-3.6-4.18,8.38-20.35,26.78-36.15" transform="translate(-174.9 -328.83)"/><path class="bbd577da-00c8-4a12-9272-e1afa8881af7" d="M335.93,387.19c5.79-5.7,27.74,7.26,49.08,29" transform="translate(-174.9 -328.83)"/><path class="bbd577da-00c8-4a12-9272-e1afa8881af7" d="M328.85,407c12.64,1.94,19.9,22.84,16.23,46.73" transform="translate(-174.9 -328.83)"/><path class="bbd577da-00c8-4a12-9272-e1afa8881af7" d="M307.87,409.36c4.68,2.44-1.49,23.56-13.8,47.22" transform="translate(-174.9 -328.83)"/><path class="bbd577da-00c8-4a12-9272-e1afa8881af7" d="M297.61,396c-4.22,8.33-28.53,4.48-54.36-8.6" transform="translate(-174.9 -328.83)"/><circle class="b86a72e9-76db-4e94-8fee-b5f586f73207" cx="141.67" cy="63.24" r="19.36"/></svg>